<svg width="200" height="204" viewBox="0 0 200 204" fill="none" xmlns="http://www.w3.org/2000/svg">
<rect y="4" width="200" height="200" rx="30" fill="black"/>
<path d="M71.6648 124V30.9091H130.028V43H85.7102V71.3636H126.983V83.4091H85.7102V111.909H130.574V124H71.6648ZM64.4858 147.091H74.9347L83.7983 168.705H84.2074L93.071 147.091H103.52V182H95.304V160.557H95.0142L86.6278 181.778H81.3778L72.9915 160.438H72.7017V182H64.4858V147.091ZM121.993 182.477C119.334 182.477 116.976 182.023 114.919 181.114C112.874 180.193 111.26 178.926 110.078 177.312C108.896 175.699 108.294 173.841 108.271 171.739H116.76C116.794 172.5 117.038 173.176 117.493 173.767C117.947 174.347 118.567 174.801 119.351 175.131C120.135 175.46 121.027 175.625 122.027 175.625C123.027 175.625 123.908 175.449 124.669 175.097C125.442 174.733 126.044 174.239 126.476 173.614C126.908 172.977 127.118 172.25 127.107 171.432C127.118 170.614 126.885 169.886 126.408 169.25C125.93 168.614 125.254 168.119 124.379 167.767C123.516 167.415 122.493 167.239 121.311 167.239H117.919V161.239H121.311C122.345 161.239 123.254 161.068 124.038 160.727C124.834 160.386 125.453 159.909 125.896 159.295C126.339 158.67 126.555 157.955 126.544 157.148C126.555 156.364 126.368 155.676 125.982 155.085C125.607 154.483 125.078 154.017 124.396 153.688C123.726 153.358 122.947 153.193 122.061 153.193C121.129 153.193 120.283 153.358 119.521 153.688C118.771 154.017 118.175 154.483 117.732 155.085C117.288 155.687 117.055 156.386 117.033 157.182H108.97C108.993 155.102 109.572 153.273 110.709 151.693C111.845 150.102 113.391 148.858 115.345 147.96C117.311 147.062 119.55 146.614 122.061 146.614C124.561 146.614 126.76 147.051 128.658 147.926C130.555 148.801 132.033 149.994 133.089 151.506C134.146 153.006 134.675 154.705 134.675 156.602C134.686 158.568 134.044 160.187 132.749 161.46C131.464 162.733 129.811 163.517 127.788 163.812V164.085C130.493 164.403 132.533 165.278 133.908 166.71C135.294 168.142 135.982 169.932 135.97 172.08C135.97 174.102 135.374 175.898 134.18 177.466C132.999 179.023 131.351 180.25 129.237 181.148C127.135 182.034 124.72 182.477 121.993 182.477Z" fill="white"/>
</svg>
